<svg width="72" height="23" viewBox="0 0 72 23" fill="none" xmlns="http://www.w3.org/2000/svg">
<path d="M10.128 19.288C8.816 19.288 7.592 19.072 6.456 18.64C5.336 18.208 4.36 17.6 3.528 16.816C2.712 16.032 2.072 15.112 1.608 14.056C1.16 13 0.936 11.848 0.936 10.6C0.936 9.352 1.16 8.2 1.608 7.144C2.072 6.088 2.72 5.168 3.552 4.384C4.384 3.6 5.36 2.992 6.48 2.56C7.6 2.128 8.816 1.912 10.128 1.912C11.456 1.912 12.672 2.128 13.776 2.56C14.896 2.992 15.864 3.6 16.68 4.384C17.512 5.152 18.16 6.064 18.624 7.12C19.088 8.176 19.32 9.336 19.32 10.6C19.32 11.848 19.088 13.008 18.624 14.08C18.16 15.136 17.512 16.056 16.68 16.84C15.864 17.608 14.896 18.208 13.776 18.64C12.672 19.072 11.456 19.288 10.128 19.288ZM15.624 22.864C14.968 22.864 14.344 22.792 13.752 22.648C13.176 22.504 12.6 22.272 12.024 21.952C11.464 21.632 10.872 21.2 10.248 20.656C9.64 20.112 8.976 19.44 8.256 18.64L12.336 17.608C12.768 18.2 13.168 18.672 13.536 19.024C13.904 19.376 14.256 19.624 14.592 19.768C14.944 19.912 15.312 19.984 15.696 19.984C16.72 19.984 17.632 19.568 18.432 18.736L20.16 20.8C19.024 22.176 17.512 22.864 15.624 22.864ZM10.128 15.976C10.88 15.976 11.568 15.848 12.192 15.592C12.832 15.336 13.392 14.968 13.872 14.488C14.352 14.008 14.72 13.44 14.976 12.784C15.248 12.112 15.384 11.384 15.384 10.6C15.384 9.8 15.248 9.072 14.976 8.416C14.72 7.76 14.352 7.192 13.872 6.712C13.392 6.232 12.832 5.864 12.192 5.608C11.568 5.352 10.88 5.224 10.128 5.224C9.376 5.224 8.68 5.352 8.04 5.608C7.4 5.864 6.84 6.232 6.36 6.712C5.896 7.192 5.528 7.76 5.256 8.416C5 9.072 4.872 9.8 4.872 10.6C4.872 11.384 5 12.112 5.256 12.784C5.528 13.44 5.896 14.008 6.36 14.488C6.84 14.968 7.4 15.336 8.04 15.592C8.68 15.848 9.376 15.976 10.128 15.976ZM27.786 19.144C26.698 19.144 25.738 18.944 24.906 18.544C24.09 18.144 23.45 17.536 22.986 16.72C22.538 15.888 22.314 14.848 22.314 13.6V6.28H24.618V13.336C24.618 14.584 24.914 15.52 25.506 16.144C26.114 16.768 26.962 17.08 28.05 17.08C28.85 17.08 29.546 16.92 30.138 16.6C30.73 16.264 31.186 15.784 31.506 15.16C31.826 14.52 31.986 13.752 31.986 12.856V6.28H34.29V19H32.106V15.568L32.466 16.48C32.05 17.328 31.426 17.984 30.594 18.448C29.762 18.912 28.826 19.144 27.786 19.144ZM38.6762 19V1.192H40.9802V19H38.6762ZM45.3793 19V6.28H47.6833V19H45.3793ZM46.5313 3.832C46.0833 3.832 45.7073 3.688 45.4033 3.4C45.1153 3.112 44.9713 2.76 44.9713 2.344C44.9713 1.912 45.1153 1.552 45.4033 1.264C45.7073 0.975999 46.0833 0.831999 46.5313 0.831999C46.9793 0.831999 47.3473 0.975999 47.6353 1.264C47.9393 1.536 48.0913 1.88 48.0913 2.296C48.0913 2.728 47.9473 3.096 47.6593 3.4C47.3713 3.688 46.9953 3.832 46.5313 3.832ZM55.7304 19.144C54.6744 19.144 53.6664 19 52.7064 18.712C51.7624 18.424 51.0184 18.072 50.4744 17.656L51.4344 15.832C51.9784 16.2 52.6504 16.512 53.4504 16.768C54.2504 17.024 55.0664 17.152 55.8984 17.152C56.9704 17.152 57.7384 17 58.2024 16.696C58.6824 16.392 58.9224 15.968 58.9224 15.424C58.9224 15.024 58.7784 14.712 58.4904 14.488C58.2024 14.264 57.8184 14.096 57.3384 13.984C56.8744 13.872 56.3544 13.776 55.7784 13.696C55.2024 13.6 54.6264 13.488 54.0504 13.36C53.4744 13.216 52.9464 13.024 52.4664 12.784C51.9864 12.528 51.6024 12.184 51.3144 11.752C51.0264 11.304 50.8824 10.712 50.8824 9.976C50.8824 9.208 51.0984 8.536 51.5304 7.96C51.9624 7.384 52.5704 6.944 53.3544 6.64C54.1544 6.32 55.0984 6.16 56.1864 6.16C57.0184 6.16 57.8584 6.264 58.7064 6.472C59.5704 6.664 60.2744 6.944 60.8184 7.312L59.8344 9.136C59.2584 8.752 58.6584 8.488 58.0344 8.344C57.4104 8.2 56.7864 8.128 56.1624 8.128C55.1544 8.128 54.4024 8.296 53.9064 8.632C53.4104 8.952 53.1624 9.368 53.1624 9.88C53.1624 10.312 53.3064 10.648 53.5944 10.888C53.8984 11.112 54.2824 11.288 54.7464 11.416C55.2264 11.544 55.7544 11.656 56.3304 11.752C56.9064 11.832 57.4824 11.944 58.0584 12.088C58.6344 12.216 59.1544 12.4 59.6184 12.64C60.0984 12.88 60.4824 13.216 60.7704 13.648C61.0744 14.08 61.2264 14.656 61.2264 15.376C61.2264 16.144 61.0024 16.808 60.5544 17.368C60.1064 17.928 59.4744 18.368 58.6584 18.688C57.8424 18.992 56.8664 19.144 55.7304 19.144ZM68.4739 19.144C67.1939 19.144 66.2019 18.8 65.4979 18.112C64.7939 17.424 64.4419 16.44 64.4419 15.16V3.496H66.7459V15.064C66.7459 15.752 66.9139 16.28 67.2499 16.648C67.6019 17.016 68.0979 17.2 68.7379 17.2C69.4579 17.2 70.0579 17 70.5379 16.6L71.2579 18.256C70.9059 18.56 70.4819 18.784 69.9859 18.928C69.5059 19.072 69.0019 19.144 68.4739 19.144ZM62.2819 8.176V6.28H70.3939V8.176H62.2819Z" fill="white"/>
</svg>
