<svg width="114" height="39" viewBox="0 0 114 39" fill="none" xmlns="http://www.w3.org/2000/svg">
<path d="M12.5394 4.84616H28.5614L16.782 26.0519H0.76001L12.5394 4.84616Z" fill="white"/>
<path d="M13.2411 28.0172L8.67871 36.2308H25.4607L37.2401 15.025H24.8539L17.637 28.0172H13.2411Z" fill="#FFCE51"/>
<path d="M59.712 29.024L56.784 25.856C56.064 26.064 55.272 26.168 54.408 26.168C52.856 26.168 51.424 25.808 50.112 25.088C48.816 24.352 47.784 23.336 47.016 22.04C46.264 20.728 45.888 19.256 45.888 17.624C45.888 15.992 46.264 14.528 47.016 13.232C47.784 11.936 48.816 10.928 50.112 10.208C51.424 9.472 52.856 9.104 54.408 9.104C55.976 9.104 57.408 9.472 58.704 10.208C60.016 10.928 61.048 11.936 61.8 13.232C62.552 14.528 62.928 15.992 62.928 17.624C62.928 19.16 62.592 20.552 61.92 21.8C61.264 23.032 60.352 24.024 59.184 24.776L63.192 29.024H59.712ZM48.696 17.624C48.696 18.856 48.936 19.944 49.416 20.888C49.912 21.816 50.592 22.536 51.456 23.048C52.32 23.544 53.304 23.792 54.408 23.792C55.512 23.792 56.496 23.544 57.36 23.048C58.224 22.536 58.896 21.816 59.376 20.888C59.872 19.944 60.12 18.856 60.12 17.624C60.12 16.392 59.872 15.312 59.376 14.384C58.896 13.456 58.224 12.744 57.36 12.248C56.496 11.752 55.512 11.504 54.408 11.504C53.304 11.504 52.32 11.752 51.456 12.248C50.592 12.744 49.912 13.456 49.416 14.384C48.936 15.312 48.696 16.392 48.696 17.624ZM77.6666 12.776V26H74.9306V24.44C74.4986 24.984 73.9306 25.416 73.2266 25.736C72.5386 26.04 71.8026 26.192 71.0186 26.192C69.9786 26.192 69.0426 25.976 68.2106 25.544C67.3946 25.112 66.7466 24.472 66.2666 23.624C65.8026 22.776 65.5706 21.752 65.5706 20.552V12.776H68.2826V20.144C68.2826 21.328 68.5786 22.24 69.1706 22.88C69.7626 23.504 70.5706 23.816 71.5946 23.816C72.6186 23.816 73.4266 23.504 74.0186 22.88C74.6266 22.24 74.9306 21.328 74.9306 20.144V12.776H77.6666ZM84.0126 8.24V26H81.2766V8.24H84.0126ZM88.9967 11.024C88.5007 11.024 88.0847 10.856 87.7487 10.52C87.4127 10.184 87.2447 9.768 87.2447 9.272C87.2447 8.776 87.4127 8.36 87.7487 8.024C88.0847 7.688 88.5007 7.52 88.9967 7.52C89.4767 7.52 89.8847 7.688 90.2207 8.024C90.5567 8.36 90.7247 8.776 90.7247 9.272C90.7247 9.768 90.5567 10.184 90.2207 10.52C89.8847 10.856 89.4767 11.024 88.9967 11.024ZM90.3407 12.776V26H87.6047V12.776H90.3407ZM98.7328 26.216C97.6928 26.216 96.7568 26.032 95.9248 25.664C95.1088 25.28 94.4608 24.768 93.9808 24.128C93.5008 23.472 93.2448 22.744 93.2128 21.944H96.0448C96.0928 22.504 96.3568 22.976 96.8368 23.36C97.3328 23.728 97.9488 23.912 98.6848 23.912C99.4528 23.912 100.045 23.768 100.461 23.48C100.893 23.176 101.109 22.792 101.109 22.328C101.109 21.832 100.869 21.464 100.389 21.224C99.9248 20.984 99.1808 20.72 98.1568 20.432C97.1648 20.16 96.3568 19.896 95.7328 19.64C95.1088 19.384 94.5648 18.992 94.1008 18.464C93.6528 17.936 93.4288 17.24 93.4288 16.376C93.4288 15.672 93.6368 15.032 94.0528 14.456C94.4688 13.864 95.0608 13.4 95.8288 13.064C96.6128 12.728 97.5088 12.56 98.5168 12.56C100.021 12.56 101.229 12.944 102.141 13.712C103.069 14.464 103.565 15.496 103.629 16.808H100.893C100.845 16.216 100.605 15.744 100.173 15.392C99.7408 15.04 99.1568 14.864 98.4208 14.864C97.7008 14.864 97.1488 15 96.7648 15.272C96.3808 15.544 96.1888 15.904 96.1888 16.352C96.1888 16.704 96.3168 17 96.5728 17.24C96.8288 17.48 97.1408 17.672 97.5088 17.816C97.8768 17.944 98.4208 18.112 99.1408 18.32C100.101 18.576 100.885 18.84 101.493 19.112C102.117 19.368 102.653 19.752 103.101 20.264C103.549 20.776 103.781 21.456 103.797 22.304C103.797 23.056 103.589 23.728 103.173 24.32C102.757 24.912 102.165 25.376 101.397 25.712C100.645 26.048 99.7568 26.216 98.7328 26.216ZM109.945 15.008V22.328C109.945 22.824 110.057 23.184 110.281 23.408C110.521 23.616 110.921 23.72 111.481 23.72H113.161V26H111.001C109.769 26 108.825 25.712 108.169 25.136C107.513 24.56 107.185 23.624 107.185 22.328V15.008H105.625V12.776H107.185V9.488H109.945V12.776H113.161V15.008H109.945Z" fill="white"/>
</svg>
