<svg width="41" height="41" viewBox="0 0 41 41" fill="none" xmlns="http://www.w3.org/2000/svg">
<path d="M19.8465 33.736C17.2993 33.736 14.9228 33.3166 12.7172 32.4779C10.5427 31.6392 8.6478 30.4587 7.03244 28.9366C5.44816 27.4144 4.20558 25.6282 3.30471 23.5779C2.4349 21.5277 2 19.291 2 16.868C2 14.445 2.4349 12.2083 3.30471 10.1581C4.20558 8.10783 5.46369 6.32162 7.07904 4.79946C8.69439 3.2773 10.5893 2.09685 12.7638 1.25811C14.9384 0.41937 17.2993 0 19.8465 0C22.4249 0 24.7858 0.41937 26.9292 1.25811C29.1037 2.09685 30.9832 3.2773 32.5674 4.79946C34.1828 6.29055 35.4409 8.06123 36.3418 10.1115C37.2426 12.1617 37.6931 14.4139 37.6931 16.868C37.6931 19.291 37.2426 21.5432 36.3418 23.6245C35.4409 25.6748 34.1828 27.461 32.5674 28.9831C30.9832 30.4742 29.1037 31.6392 26.9292 32.4779C24.7858 33.3166 22.4249 33.736 19.8465 33.736ZM30.5172 40.6789C29.2435 40.6789 28.032 40.5391 26.8826 40.2596C25.7643 39.98 24.646 39.5295 23.5277 38.9082C22.4404 38.287 21.291 37.4482 20.0795 36.392C18.8991 35.3358 17.6099 34.0311 16.212 32.4779L24.1334 30.4742C24.9722 31.6236 25.7488 32.54 26.4633 33.2234C27.1778 33.9069 27.8612 34.3884 28.5135 34.6679C29.1969 34.9475 29.9114 35.0873 30.657 35.0873C32.6451 35.0873 34.4158 34.2796 35.969 32.6643L39.324 36.6716C37.1184 39.3431 34.1828 40.6789 30.5172 40.6789ZM19.8465 27.3057C21.3066 27.3057 22.6423 27.0572 23.8539 26.5601C25.0964 26.0631 26.1837 25.3486 27.1156 24.4167C28.0476 23.4847 28.762 22.3819 29.2591 21.1083C29.7872 19.8036 30.0512 18.3902 30.0512 16.868C30.0512 15.3148 29.7872 13.9014 29.2591 12.6277C28.762 11.3541 28.0476 10.2513 27.1156 9.31934C26.1837 8.3874 25.0964 7.67292 23.8539 7.17589C22.6423 6.67886 21.3066 6.43035 19.8465 6.43035C18.3865 6.43035 17.0352 6.67886 15.7926 7.17589C14.55 7.67292 13.4628 8.3874 12.5309 9.31934C11.63 10.2513 10.9155 11.3541 10.3874 12.6277C9.89038 13.9014 9.64186 15.3148 9.64186 16.868C9.64186 18.3902 9.89038 19.8036 10.3874 21.1083C10.9155 22.3819 11.63 23.4847 12.5309 24.4167C13.4628 25.3486 14.55 26.0631 15.7926 26.5601C17.0352 27.0572 18.3865 27.3057 19.8465 27.3057Z" fill="url(#paint0_linear_37_6)"/>
<defs>
<linearGradient id="paint0_linear_37_6" x1="8.5" y1="2" x2="29" y2="35" gradientUnits="userSpaceOnUse">
<stop stop-color="white"/>
<stop offset="1" stop-color="#5F5CF3"/>
</linearGradient>
</defs>
</svg>
